<svg version="1.1" id="Layer_1" xmlns="http://www.w3.org/2000/svg" x="0" y="0" viewBox="0 0 147.9 24.1" xml:space="preserve"><style>.st1{fill:#fff}</style><path d="M21.9 19c-.4.6-.9 1.2-1.5 1.7-2.2 2.1-5.1 3.3-8.3 3.3-3.2 0-6.2-1.3-8.3-3.3-.6-.5-1.1-1.1-1.5-1.7-.4-.6-.8-1.3-1.1-1.9-.2-.5-.5-1.1-.6-1.7 0-.2-.1-.3-.1-.5-.1-.6-.2-1.2-.3-1.7-.2-.4-.2-.8-.2-1.1 0-.4 0-.8.1-1.1.1-.6.2-1.2.3-1.7 0-.2.1-.3.1-.5.1-.7.4-1.2.6-1.8L3 8.1c0 .2-.1.4-.2.6-.2.5-.3 1.1-.4 1.7 0 .2-.1.4-.1.6 0 .4-.1.7-.1 1.1 0 .4 0 .8.1 1.1 0 .2 0 .4.1.6.1.6.3 1.1.4 1.7.1.1.2.3.2.5.3.7.7 1.3 1.1 1.9.5.6 1 1.2 1.6 1.7 1.7 1.4 3.9 2.3 6.3 2.3s4.6-.9 6.3-2.3l-2.9-1.7c-1 .6-2.1.9-3.4.9-1.2 0-2.4-.3-3.4-.9-.6-.4-1.2-.9-1.7-1.5-.2-.3-.5-.6-.6-.9-.2-.3-.3-.7-.5-1-.1-.4-.3-.8-.3-1.2-.1-.4-.1-.7-.1-1.1 0-.4 0-.8.1-1.1h11.2v-.2c-.2-.7-.6-1.4-1.1-1.9l-.1-.1c-.6-.6-1.3-1-2.1-1.2-.4-.1-.7-.1-1.1-.1-.4 0-.8 0-1.1.1-.8.2-1.5.6-2.1 1.2L9 9l-.5-.3-1.6-.9-2.7-1.6-2-1.1c.4-.6.9-1.2 1.5-1.7C5.9 1.3 8.8 0 12.1 0c3.2 0 6.2 1.3 8.3 3.3l-2 1.2c-1.7-1.4-3.9-2.3-6.3-2.3s-4.6.9-6.3 2.3l2.9 1.7c1-.6 2.1-.9 3.4-.9 1.2 0 2.4.3 3.4.9.7.4 1.3.9 1.8 1.5.2.3.5.6.6.9.2.3.3.7.5 1 .1.4.3.8.3 1.2.1.4.1.7.1 1.1 0 .4 0 .8-.1 1.1H7.5v.2c.2.7.6 1.4 1.1 1.9l.1.1c.6.6 1.3 1 2.1 1.2.4.1.7.1 1.1.1.4 0 .8 0 1.1-.1.8-.2 1.5-.6 2.1-1.2l.1-.1.2.1 1.6.9 2.7 1.5 2.2 1.4z" fill="#00d59f"/><path class="st1" d="M31.2 12.8c0 .7.3 1.4.9 1.9.6.5 1.2.7 2 .7 1.2 0 2.1-.5 2.7-1.5l1.6 1.1c-.8 1.5-2.5 2.4-4.2 2.4-1.5 0-2.7-.5-3.7-1.5S29 13.7 29 12.2c0-1.4.5-2.6 1.4-3.6C31.3 7.5 32.5 7 34 7s2.7.5 3.6 1.4c.9.9 1.3 2.2 1.3 3.7v.7h-7.7zm.1-1.7h5.2c-.1-1.4-1.2-2.2-2.6-2.2-1.3-.1-2.4.8-2.6 2.2zM41.8 8.7c.9-1 2.1-1.6 3.6-1.6.5 0 1.1.1 1.7.4.7.3 1.1.7 1.5 1.2V2.1h2.2v15.1h-2.2v-1.5c-.4.6-.9 1-1.5 1.3-.7.3-1.3.4-1.8.4-1.4 0-2.6-.5-3.5-1.5s-1.4-2.2-1.4-3.6.5-2.6 1.4-3.6zm1.7 1.3c-.5.6-.8 1.4-.8 2.2 0 .9.3 1.6.8 2.2.6.6 1.3.9 2.2.9s1.6-.3 2.1-.9c.6-.6.8-1.4.8-2.2 0-.9-.3-1.6-.8-2.2-.6-.6-1.3-.9-2.1-.9s-1.7.3-2.2.9zM54.9 12.8c0 .7.3 1.4.9 1.9.6.5 1.2.7 2 .7 1.2 0 2.1-.5 2.7-1.5l1.6 1.1c-.8 1.5-2.5 2.4-4.2 2.4-1.5 0-2.7-.5-3.7-1.5s-1.5-2.2-1.5-3.7c0-1.4.5-2.6 1.4-3.6C55 7.5 56.2 7 57.7 7s2.7.5 3.6 1.4c.9.9 1.3 2.2 1.3 3.7v.7h-7.7zm.1-1.7h5.2c-.1-1.4-1.2-2.2-2.6-2.2-1.3-.1-2.4.8-2.6 2.2zM69.8 9.4c-.2 0-.4-.1-.6-.1-1.7 0-2.6 1-2.6 2.7v5h-2.2V7.2h2.2v1.6c.6-1.1 1.5-1.7 2.7-1.7.2 0 .4 0 .5.1v2.2z"/><g><path class="st1" d="M74.7 15.8c-1-1-1.5-2.2-1.5-3.7 0-1.4.5-2.6 1.5-3.6S76.9 7 78.4 7c2.2 0 3.9 1.2 4.5 3l-1.9.9C80.5 9.6 79.7 9 78.4 9c-.8 0-1.5.3-2.1.9-.6.6-.8 1.3-.8 2.2 0 .9.3 1.7.8 2.3.6.6 1.3.9 2.1.9 1.2 0 2.1-.6 2.6-1.8l1.9.9c-.3.8-.8 1.5-1.6 2.1-.8.6-1.7.9-3 .9-1.4-.1-2.6-.6-3.6-1.6zM91.2 17.1v-5.6C91.2 10 90.5 9 89 9c-1.4 0-2.3 1-2.3 2.5V17h-2.2V1.9h2.2v6.5c.8-1 1.8-1.5 3-1.5 2.4 0 3.7 1.6 3.7 4V17h-2.2zM101.6 9.4c-.2 0-.4-.1-.6-.1-1.7 0-2.6 1-2.6 2.7v5h-2.2V7.2h2.2v1.6c.6-1.1 1.5-1.7 2.7-1.7.2 0 .4 0 .5.1v2.2zM103.1 2.9c.6-.6 1.5-.6 2 0 .6.6.6 1.5 0 2s-1.5.6-2 0c-.6-.5-.6-1.4 0-2zm2.1 14.2H103V7.2h2.2v9.9zM106.8 14.8l1.7-1c.5 1.1 1.3 1.6 2.4 1.6.8 0 1.6-.4 1.6-1.1 0-.6-.7-1-2-1.3-1.1-.2-1.9-.6-2.5-1.2-.5-.5-.7-1.1-.7-1.8 0-.9.4-1.6 1.1-2.2.7-.6 1.6-.9 2.5-.9 1.8 0 3 .7 3.7 2.2l-1.7 1c-.4-.9-1.1-1.3-2.1-1.3-.7 0-1.4.4-1.4 1 0 .7.6 1 1.8 1.3 2.2.5 3.4 1.6 3.4 3.1 0 .9-.4 1.7-1 2.2-.7.6-1.6.9-2.7.9-2 0-3.3-.9-4.1-2.5zM119.6 9.1v4.4c0 1.2.6 1.7 1.7 1.7.2 0 .5 0 .7-.1V17c-.4.1-.8.2-1.2.2-2.2 0-3.4-1.2-3.4-3.3V9.1h-1.8v-2h1.8v-3h2.2v3.1h2.4v2h-2.4zM124.2 2.9c.6-.6 1.5-.6 2 0 .6.6.6 1.5 0 2s-1.5.6-2 0c-.5-.5-.5-1.4 0-2zm2.2 14.2h-2.2V7.2h2.2v9.9zM132.5 8.9c-1.1 0-2 .5-2.5 1.6l-1.7-1c.8-1.7 2.2-2.5 4.2-2.5 1.9 0 3.1.7 3.7 2 .2.5.3 1.1.3 1.8v6.3h-2.2v-1.4c-.6 1-1.6 1.5-2.9 1.5-1 0-1.8-.3-2.4-.8-.6-.5-.9-1.2-.9-2.1v-.1c0-2.3 2.4-3 4.1-3h1.2c.6 0 .9-.3.9-.8.2-.9-.5-1.5-1.8-1.5zm2 3.9h-2.1c-.5 0-.9.1-1.3.4-.4.2-.6.6-.6 1 0 .8.6 1.4 1.6 1.4 1.5 0 2.5-.9 2.5-2.4v-.4zM145.7 17.1v-5.6c0-1.5-.7-2.5-2.2-2.5-1.4 0-2.3 1-2.3 2.5V17H139V7.2h2.2v1.3c.8-1 1.8-1.5 3-1.5 2.4 0 3.7 1.6 3.7 4v6.1h-2.2z"/></g></svg>