<svg xmlns="http://www.w3.org/2000/svg" xmlns:xlink="http://www.w3.org/1999/xlink" viewBox="0 0 95.25 191.029"><defs><linearGradient id="e"><stop offset="0" stop-color="#404040"/><stop offset=".022" stop-color="#464646"/><stop offset=".999" stop-color="#525252" stop-opacity=".016"/><stop offset="1" stop-color="#444" stop-opacity="0"/></linearGradient><linearGradient id="d"><stop offset="0" stop-color="#4f4f4f" stop-opacity=".131"/><stop offset=".07" stop-color="#4f4f4f"/><stop offset=".937" stop-color="#4f4f4f" stop-opacity=".953"/><stop offset="1" stop-color="#4f4f4f" stop-opacity="0"/></linearGradient><linearGradient id="c"><stop offset="0" stop-color="#cbcbcb" stop-opacity=".275"/><stop offset=".04" stop-color="#cbcbcb"/><stop offset=".96" stop-color="#cbcbcb"/><stop offset="1" stop-color="#cbcbcb" stop-opacity=".276"/></linearGradient><linearGradient id="b"><stop offset="0" stop-color="#cbcbcb" stop-opacity=".275"/><stop offset=".05" stop-color="#cbcbcb"/><stop offset=".95" stop-color="#cbcbcb"/><stop offset="1" stop-color="#cbcbcb" stop-opacity=".276"/></linearGradient><linearGradient id="a"><stop offset="0" stop-color="#404040"/><stop offset=".6" stop-color="#838383"/><stop offset="1" stop-color="#a7a7a7"/></linearGradient><linearGradient xlink:href="#a" id="t" gradientUnits="userSpaceOnUse" x1="340.652" y1="361.123" x2="349.574" y2="361.123"/><linearGradient gradientTransform="matrix(-.26458 0 0 .26458 95.476 0)" xlink:href="#a" id="u" gradientUnits="userSpaceOnUse" x1="340.652" y1="361.123" x2="349.574" y2="361.123"/><linearGradient xlink:href="#b" id="j" x1="-13.206" y1="26.259" x2="-13.206" y2="32.871" gradientUnits="userSpaceOnUse"/><linearGradient xlink:href="#b" id="m" x1="-13.206" y1="26.259" x2="-13.206" y2="39.269" gradientUnits="userSpaceOnUse" gradientTransform="translate(13.878 13.831)"/><linearGradient xlink:href="#b" id="p" gradientUnits="userSpaceOnUse" gradientTransform="translate(13.878 13.831)" x1="-13.206" y1="26.259" x2="-13.206" y2="39.269"/><linearGradient xlink:href="#c" id="g" gradientUnits="userSpaceOnUse" gradientTransform="translate(13.878 13.831)" x1="-13.206" y1="26.259" x2="-13.206" y2="47.301"/><linearGradient xlink:href="#d" id="x" x1="8.315" y1="8.48" x2="86.935" y2="8.48" gradientUnits="userSpaceOnUse" gradientTransform="translate(.067 -2.606)"/><linearGradient xlink:href="#d" id="y" x1="8.315" y1="8.48" x2="86.935" y2="8.48" gradientUnits="userSpaceOnUse" gradientTransform="matrix(1 0 0 -1 .067 193.567)"/><linearGradient xlink:href="#e" id="z" gradientUnits="userSpaceOnUse" x1="304.221" y1="22.201" x2="303.21" y2="920.095"/><filter id="s" x="-.002" width="1.003" y="-.001" height="1.002" color-interpolation-filters="sRGB"><feGaussianBlur stdDeviation=".266"/></filter><filter id="v" x="-.192" width="1.385" y="-.082" height="1.165" color-interpolation-filters="sRGB"><feGaussianBlur stdDeviation=".031"/></filter><filter id="w" x="-.109" width="1.218" y="-.082" height="1.165" color-interpolation-filters="sRGB"><feGaussianBlur stdDeviation=".031"/></filter><filter id="k" x="-.325" width="1.65" y="-.026" height="1.052" color-interpolation-filters="sRGB"><feGaussianBlur stdDeviation=".071"/></filter><filter id="n" x="-.325" width="1.65" y="-.026" height="1.052" color-interpolation-filters="sRGB"><feGaussianBlur stdDeviation=".071"/></filter><filter id="q" x="-.325" width="1.65" y="-.026" height="1.052" color-interpolation-filters="sRGB"><feGaussianBlur stdDeviation=".071"/></filter><filter id="h" x="-.325" width="1.65" y="-.026" height="1.052" color-interpolation-filters="sRGB"><feGaussianBlur stdDeviation=".071"/></filter><clipPath clipPathUnits="userSpaceOnUse" id="r"><path style="marker:none" d="M56.734 2.014c-29.678 0-53.572 23.893-53.572 53.572v610.443c0 29.679 23.894 53.573 53.572 53.573h246.532c29.678 0 53.572-23.894 53.572-53.573V55.586c0-29.679-23.894-53.572-53.572-53.572zm-1.423 3.978h249.378c26.583 0 47.983 21.398 47.983 47.98V668.21c0 26.582-21.4 47.982-47.983 47.982H55.311c-26.583 0-47.983-21.4-47.983-47.982V53.973c0-26.583 21.4-47.98 47.983-47.98z" color="#000" overflow="visible" fill="#ebebeb" stroke-width="1.276" stroke-linecap="round" enable-background="accumulate"/></clipPath><clipPath clipPathUnits="userSpaceOnUse" id="i"><rect style="marker:none" width="4.377" height="7.417" x="-13.878" y="25.857" ry=".451" color="#000" overflow="visible" stroke-width=".026" stroke-linecap="round" enable-background="accumulate"/></clipPath><clipPath clipPathUnits="userSpaceOnUse" id="l"><path d="M.451 39.688a.45.45 0 00-.451.45v12.913c0 .25.201.451.451.451h3.474a.45.45 0 00.451-.45V40.138a.45.45 0 00-.45-.451z" style="marker:none" color="#000" overflow="visible" stroke-width=".026" stroke-linecap="round" enable-background="accumulate"/></clipPath><clipPath clipPathUnits="userSpaceOnUse" id="o"><path d="M.451 39.688a.45.45 0 00-.451.45v12.913c0 .25.201.451.451.451h3.474a.45.45 0 00.451-.45V40.138a.45.45 0 00-.45-.451z" style="marker:none" color="#000" overflow="visible" stroke-width=".026" stroke-linecap="round" enable-background="accumulate"/></clipPath><clipPath clipPathUnits="userSpaceOnUse" id="f"><path d="M.451 39.688a.45.45 0 00-.451.45v20.945c0 .25.201.451.451.451h3.474a.45.45 0 00.451-.45V40.138a.45.45 0 00-.45-.451z" style="marker:none" color="#000" overflow="visible" stroke-width=".026" stroke-linecap="round" enable-background="accumulate"/></clipPath></defs><g color="#000"><path style="marker:none" d="M94.799 44.206c.25 0 .451.201.451.451v20.945a.45.45 0 01-.451.45h-3.474a.45.45 0 01-.451-.45V44.657c0-.25.2-.45.45-.45z" overflow="visible" enable-background="accumulate"/><path transform="matrix(-1 0 0 1 95.25 4.518)" clip-path="url(#f)" d="M.547 40.09a.401.401 0 00-.402.402V60.73c0 .223.18.402.402.402h.125V40.09z" style="marker:none" overflow="visible" fill="url(#g)" filter="url(#h)" enable-background="accumulate"/></g><g transform="translate(.014)" color="#000"><rect ry=".451" y="25.857" x="-.014" height="7.417" width="4.377" style="marker:none" overflow="visible" enable-background="accumulate"/><path transform="translate(13.864)" clip-path="url(#i)" d="M-13.33 26.259a.401.401 0 00-.403.402v5.808c0 .223.18.402.402.402h.125v-6.612z" style="marker:none" overflow="visible" fill="url(#j)" filter="url(#k)" enable-background="accumulate"/></g><g color="#000"><path style="marker:none" d="M.451 39.688a.45.45 0 00-.451.45v12.913c0 .25.201.451.451.451h3.474a.45.45 0 00.451-.45V40.138a.45.45 0 00-.45-.451z" overflow="visible" enable-background="accumulate"/><path clip-path="url(#l)" d="M.547 40.09a.401.401 0 00-.402.402v12.206c0 .223.18.402.402.402h.125V40.09z" style="marker:none" overflow="visible" fill="url(#m)" filter="url(#n)" enable-background="accumulate"/></g><g color="#000"><path style="marker:none" d="M.451 57.06a.45.45 0 00-.451.451v12.913c0 .25.201.45.451.45h3.474a.45.45 0 00.451-.45V57.51a.45.45 0 00-.45-.45z" overflow="visible" enable-background="accumulate"/><path clip-path="url(#o)" d="M.547 40.09a.401.401 0 00-.402.402v12.206c0 .223.18.402.402.402h.125V40.09z" style="marker:none" overflow="visible" fill="url(#p)" filter="url(#q)" enable-background="accumulate" transform="translate(0 17.373)"/></g><path style="marker:none" d="M14.483.199A13.934 13.934 0 00.52 14.163v162.634a13.934 13.934 0 0013.964 13.965h28.301l.578-.82h8.525l.58.82h28.3a13.934 13.934 0 0013.964-13.965V14.163A13.934 13.934 0 0080.767.2z" color="#000" overflow="visible" enable-background="accumulate"/><g color="#000"><path style="marker:none" d="M.837 19.826h1.102v-1.303H.837z" overflow="visible" fill="#7d7e7f" enable-background="accumulate"/><path style="marker:none" d="M.837 171.2h1.102V19.827H.837z" overflow="visible" fill="#ebebeb" enable-background="accumulate"/><path style="marker:none" d="M.837 172.504h1.102v-1.303H.837z" overflow="visible" fill="#7d7e7f" enable-background="accumulate"/><path style="marker:none" d="M94.413 172.504h-1.102v4.36a12.668 12.668 0 01-12.695 12.695H14.634A12.668 12.668 0 011.94 176.864v-4.36H.837v3.783A14.143 14.143 0 0015.01 190.46h65.228a14.143 14.143 0 0014.174-14.174z" overflow="visible" fill="#ebebeb" enable-background="accumulate"/><path style="marker:none" d="M94.413 171.2h-1.102v1.304h1.102z" overflow="visible" fill="#7d7e7f" enable-background="accumulate"/><path style="marker:none" d="M94.413 19.826h-1.102v151.375h1.102z" overflow="visible" fill="#ebebeb" enable-background="accumulate"/><path style="marker:none" d="M94.413 18.523h-1.102v1.303h1.102z" overflow="visible" fill="#7d7e7f" enable-background="accumulate"/><path style="marker:none" d="M15.011.6A14.143 14.143 0 00.837 14.773v3.75h1.102v-4.177A12.667 12.667 0 0114.634 1.652h65.982A12.667 12.667 0 0193.31 14.347v4.176h1.102v-3.75A14.143 14.143 0 0080.24.6z" overflow="visible" fill="#ebebeb" enable-background="accumulate"/></g><path clip-path="url(#r)" transform="scale(.26458)" d="M37.924 11.58c-6.587-.168-19.14 1.826-32.031 16.313-18.75 21.071-1.965 8.392-1.965 8.392s11.518-17.856 27.59-20.178c16.071-2.321 11.16-3.93 11.16-3.93s-1.76-.52-4.754-.597zm284.152 0c-2.994.076-4.754.598-4.754.598s-4.911 1.608 11.16 3.93c16.072 2.32 27.59 20.177 27.59 20.177s16.785 12.679-1.965-8.392c-12.89-14.487-25.444-16.48-32.03-16.313zM-2.439 681.941c-1.439-.172-.457 2.29 8.332 12.166 18.75 21.072 36.785 15.715 36.785 15.715s4.911-1.608-11.16-3.93c-16.072-2.32-27.59-20.177-27.59-20.177s-4.737-3.578-6.367-3.774zm364.878 0c-1.63.196-6.367 3.774-6.367 3.774s-11.518 17.856-27.59 20.178c-16.071 2.321-11.16 3.93-11.16 3.93s18.035 5.356 36.785-15.716c8.79-9.877 9.77-12.338 8.332-12.166z" fill="#434343" fill-rule="evenodd" filter="url(#s)"/><g color="#000"><path transform="matrix(.26458 0 0 .26458 -.113 0)" d="M325.58 15.363c-1.174-.116-.62 1.055 2.016 3.496 8.696 8.055 14.095 19.714 14.095 32.692v619.144c0 12.978-5.4 24.637-14.095 32.692-2.636 2.441-3.19 3.612-2.016 3.496.705-.07 2.032-.603 3.904-1.602 12.71-6.78 20.09-21.408 20.09-36.945V53.91c0-15.537-7.38-30.165-20.09-36.945-1.872-.999-3.2-1.532-3.904-1.602z" style="marker:none" overflow="visible" fill="url(#t)" enable-background="accumulate"/><path d="M9.333 4.065c.311-.03.164.279-.533.925-2.3 2.131-3.73 5.216-3.73 8.65v163.815c0 3.433 1.43 6.518 3.73 8.65.697.645.844.955.533.924-.186-.018-.537-.16-1.033-.423-3.362-1.794-5.315-5.665-5.315-9.775V14.264c0-4.111 1.953-7.981 5.315-9.775.496-.265.847-.406 1.033-.424z" style="marker:none" overflow="visible" fill="url(#u)" enable-background="accumulate" transform="translate(-.113)"/></g><rect ry=".721" y="7.262" x="42.026" height="1.441" width="11.363" style="marker:none" color="#000" overflow="visible" fill="#1e1e1e" enable-background="accumulate"/><circle r="1.345" cy="7.89" cx="57.915" style="marker:none" color="#000" overflow="visible" fill="#2b2b2b" enable-background="accumulate"/><circle r="1.077" cy="7.89" cx="57.915" style="marker:none" color="#000" overflow="visible" fill="#0a0d13" enable-background="accumulate"/><circle r=".821" cy="7.89" cx="57.915" style="marker:none" color="#000" overflow="visible" fill="#091427" enable-background="accumulate"/><path d="M57.35 7.34c-.098.01-.236.16-.246.451-.01.292.118.451.19.451.071 0 .368-.425.056-.901z" fill="#235a91" fill-opacity=".556" fill-rule="evenodd" filter="url(#v)"/><path d="M58.049 7.238c-.154.047-.183.296-.177.437.006.142.206.514.449.431.242-.082.283-.39.183-.596-.1-.207-.284-.354-.455-.272z" fill="#235a91" fill-rule="evenodd" fill-opacity=".556" filter="url(#w)"/><path style="marker:none" d="M40.24 8.014a1.057 1.057 0 01-1.052 1.057 1.057 1.057 0 01-1.061-1.05 1.057 1.057 0 011.045-1.064 1.057 1.057 0 011.069 1.041l-1.057.016z" color="#000" overflow="visible" fill="#0f0f0f" enable-background="accumulate"/><path style="marker:none" d="M34.246 8.038a1.595 1.57 0 01-1.589 1.57 1.595 1.57 0 01-1.6-1.558 1.595 1.57 0 011.577-1.58 1.595 1.57 0 011.612 1.545l-1.595.023z" color="#000" overflow="visible" fill="#101010" enable-background="accumulate"/><path style="marker:none" d="M14.624 2.577c-2.299 0-4.437.658-6.242 1.792v1.505a10.897 10.897 0 016-1.785h66.619c2.22 0 4.28.657 6 1.785V4.37a11.685 11.685 0 00-6.241-1.792H40.794z" color="#000" overflow="visible" fill="url(#x)" enable-background="accumulate"/><path style="marker:none" d="M14.624 188.384c-2.299 0-4.437-.658-6.242-1.792v-1.505a10.897 10.897 0 006 1.785h66.619c2.22 0 4.28-.657 6-1.785v1.505a11.685 11.685 0 01-6.241 1.792H40.794z" color="#000" overflow="visible" fill="url(#y)" enable-background="accumulate"/><path style="marker:none" d="M55.78 22.201c-17.769 0-32.073 14.304-32.073 32.072V667.47c0 17.768 14.304 32.072 32.072 32.072h248.442c17.768 0 32.072-14.304 32.072-32.072V54.273c0-17.768-14.304-32.072-32.072-32.072h-31.373a5.358 5.358 0 00-5.358 5.358v2.466c0 9.654-7.77 17.426-17.424 17.426H109.934A17.386 17.386 0 0192.51 30.025V27.56a5.358 5.358 0 00-5.358-5.358H55.78z" transform="scale(.26458)" color="#000" overflow="visible" fill="#000" enable-background="accumulate"/><path style="marker:none" d="M66.398 7.87a2.133 2.11 0 01-2.125 2.109 2.133 2.11 0 01-2.14-2.094A2.133 2.11 0 0164.24 5.76a2.133 2.11 0 012.157 2.078l-2.133.031z" color="#000" overflow="visible" fill="#0f0f0f" enable-background="accumulate"/></svg>